<svg id="Capa_1" enable-background="new 0 0 512 512" height="512" viewBox="0 0 512 512" width="512" xmlns="http://www.w3.org/2000/svg"><g><path d="m406.94 390.31-61.27 41.79-89.6 7.83-.08-.01-84.38-5.8-66.57-43.82 80.81-19.86v-62.44h140.71v62.57z" fill="#874208"/><path d="m326.56 370.57 80.38 19.74-61.27 41.79-89.6 7.83-.08-.01v-131.92h70.57z" fill="#773203"/><path d="m381 67.67-10 15 10 15v61.18h-250l.01-61.18 10-15-10-15 .02-67.67h249.97z" fill="#ffda45"/><path d="m381 158.85h-125.01v-158.85h125.01v67.67l-10 15 10 15z" fill="#ffbc36"/><path d="m352.843 142v82h38.083c21.178 0 38.408-17.229 38.408-38.407v-18.334c0-9.665-3.596-18.501-9.511-25.259z" fill="#773203"/><path d="m92.178 142c-5.915 6.758-9.511 15.594-9.511 25.259v18.334c0 21.178 17.229 38.407 38.408 38.407h38.083v-82z" fill="#874208"/><path d="m131 67.67h250v30h-250z" fill="#5c5655"/><path d="m144.16 142v94.01c0 61.67 50.16 111.83 111.83 111.84h.01c61.67 0 111.84-50.17 111.84-111.84v-94.01z" fill="#b46615"/><path d="m421.61 380.07-21.35 28.18c-22.15 29.23-57.27 46.68-93.95 46.68h-8.7c12.96 5.62 22.03 18.51 22.03 33.53v23.54h-27.04c-20.17 0-36.53-16.35-36.53-36.53 0 .79-.03 1.57-.08 2.35-1.21 19.09-17.06 34.18-36.45 34.18h-27.03v-23.54c0-15.02 9.06-27.91 22.02-33.53h-8.84c-36.68 0-71.8-17.45-93.95-46.68l-21.35-28.18 95.46-24.93 70.14 63.6.01.01 70.56-63.61z" fill="#fe4a4a"/><path d="m255.99 142v205.85h.01c61.67 0 111.84-50.17 111.84-111.84v-94.01z" fill="#874208"/><path d="m421.61 380.07-21.35 28.18c-22.15 29.23-57.27 46.68-93.95 46.68h-8.7c12.96 5.62 22.03 18.51 22.03 33.53v23.54h-27.04c-20.17 0-36.53-16.35-36.53-36.53 0 .79-.03 1.57-.08 2.35v-59.08l.01.01 70.56-63.61z" fill="#e80b6a"/><path d="m255.99 67.67h125.01v30h-125.01z" fill="#363331"/><path d="m65.88 128.85h380.24v30h-380.24z" fill="#fff04a"/><path d="m255.99 128.85h190.13v30h-190.13z" fill="#ffda45"/></g></svg>