<svg id="Capa_1" enable-background="new 0 0 512 512" height="512" viewBox="0 0 512 512" width="512" xmlns="http://www.w3.org/2000/svg"><g><g><path d="m401 145c0-79.953-65.047-145-145-145s-145 65.047-145 145v47.5h290z" fill="#524798"/></g><g><g><g><path d="m401 145c0-79.953-65.047-145-145-145v192.5h145z" fill="#2e2654"/></g><path d="m463.204 405.135c-17.924-22.632-43.273-38.737-71.375-45.35l-82.393-19.387c-1.126-.264-2.279-.398-3.436-.398h-100c-1.157 0-2.31.134-3.436.398l-82.393 19.387c-28.103 6.612-53.451 22.718-71.375 45.35s-27.796 50.995-27.796 79.865v12c0 8.284 6.716 15 15 15h65l15-15 15 15h250l15-15 15 15h65c8.284 0 15-6.716 15-15v-12c0-28.87-9.872-57.233-27.796-79.865z" fill="#9ddff6"/><path d="m463.204 405.135c-17.924-22.632-43.273-38.737-71.375-45.35l-82.393-19.387c-1.126-.264-2.279-.398-3.436-.398h-50v172h125l15-15 15 15h65c8.284 0 15-6.716 15-15v-12c0-28.87-9.872-57.233-27.796-79.865z" fill="#8bb9ff"/><path d="m256 425c-31.756 0-57.5-25.744-57.5-57.5v-60.987h115v60.987c0 31.756-25.744 57.5-57.5 57.5z" fill="#f2bb88"/><path d="m256 306.513v118.487c31.756 0 57.5-25.744 57.5-57.5v-60.987z" fill="#e3a76f"/><g><path d="m171 235h-47.5c-23.472 0-42.5-19.028-42.5-42.5 0-23.472 19.028-42.5 42.5-42.5h17.5z" fill="#f2bb88"/></g><g><path d="m371 150h17.5c23.472 0 42.5 19.028 42.5 42.5 0 23.472-19.028 42.5-42.5 42.5h-47.5z" fill="#e3a76f"/></g><path d="m356 150c-32.543 0-62.75-16.166-80.801-43.243l-6.719-10.077c-2.781-4.173-7.465-6.68-12.48-6.68s-9.699 2.507-12.48 6.68l-6.719 10.077c-18.051 27.077-48.258 43.243-80.801 43.243h-15v85c0 63.411 51.589 115 115 115s115-51.589 115-115v-85z" fill="#f2d1a5"/><path d="m356 150c-32.543 0-62.75-16.166-80.801-43.243l-6.719-10.077c-2.781-4.173-7.465-6.68-12.48-6.68v260c63.411 0 115-51.589 115-115v-85z" fill="#f2bb88"/><path d="m256 289.977c-12.584 0-25.168-4.79-34.749-14.37-5.858-5.857-5.858-15.354 0-21.213 5.858-5.857 15.355-5.859 21.213 0 7.464 7.463 19.607 7.463 27.071 0 5.858-5.858 15.355-5.858 21.213 0 5.857 5.858 5.857 15.355 0 21.213-9.58 9.58-22.164 14.37-34.748 14.37z" fill="#e789da"/></g><g><path d="m116 447c-8.284 0-15 6.716-15 15v50h30v-50c0-8.284-6.716-15-15-15z" fill="#8bb9ff"/><path d="m396 447c-8.284 0-15 6.716-15 15v50h30v-50c0-8.284-6.716-15-15-15z" fill="#7d81e7"/></g></g><path d="m290.749 254.394c-5.858-5.858-15.355-5.858-21.213 0-3.732 3.731-8.634 5.597-13.536 5.597v29.986c12.584 0 25.168-4.79 34.749-14.37 5.857-5.858 5.857-15.355 0-21.213z" fill="#eb1d83"/></g></svg>