<svg id="Capa_1" enable-background="new 0 0 512 512" height="512" viewBox="0 0 512 512" width="512" xmlns="http://www.w3.org/2000/svg"><g><path d="m301 331h-45-45v.011l-35.971 14.383 10.281 32.236 70.69 119.511 72.261-122.214 8.673-29.551z" fill="#ff6c6c"/><path d="m336.934 345.376-35.934-14.376h-45v166.141l72.261-122.214z" fill="#e63950"/><path d="m256 286h-45v45c0 24.853 20.147 45 45 45s45-20.147 45-45v-45z" fill="#b37d7d"/><path d="m301 331v-45h-45v90c24.853 0 45-20.147 45-45z" fill="#995c5c"/><path d="m302.967 263.493-24.994-37.507h-21.973-21.973l-23.386 35.087-14.171 36.26c16.941 11.718 37.416 18.667 59.53 18.667 22.112 0 42.585-6.947 59.524-18.664z" fill="#b37d7d"/><path d="m302.967 263.493-24.994-37.507h-21.973v90.014c22.112 0 42.585-6.947 59.524-18.664z" fill="#995c5c"/><path d="m346 108.875-45.601-30.474c-16.95 9-30.676 13.499-44.399 13.499-13.726 0-27.449-4.499-44.399-13.499l-35.612 23.976-24.989 46.823v61.8c0 24.803 9.001 47.318 23.434 65.305l14.76-7.143 28.779-43.176h38.027 38.027l32.485 48.743 11.05 1.582c14.437-17.987 23.438-40.506 23.438-65.311v-62.1z" fill="#b37d7d"/><path d="m326.512 274.728 11.05 1.582c14.437-17.986 23.438-40.505 23.438-65.31v-62.1l-15-40.025-45.601-30.474c-16.95 9-30.676 13.499-44.399 13.499v134.086h38.027z" fill="#995c5c"/><g><path d="m148.407 439.618 26.622-94.224-85.552 34.21c-17.813 7.119-31.23 22.515-35.918 41.162l-22.559 91.234h158.789z" fill="#575f64"/><path d="m481 512-22.559-91.234c-4.688-18.662-18.12-34.043-35.947-41.162l-85.56-34.228 26.673 94.243-41.391 72.381z" fill="#474f54"/></g><path d="m256 0c-57.9 0-105 48.1-105 106v43.2l60.601-40.8c16.95 9 30.674 13.499 44.399 13.499 13.724 0 27.449-4.499 44.399-13.499l60.601 40.5v-42.9c0-57.836-47.267-106-105-106z" fill="#575f64"/><path d="m361 148.9v-42.9c0-57.836-47.267-106-105-106v121.899c13.724 0 27.449-4.499 44.399-13.499z" fill="#474f54"/><g><path d="m294.027 211h-38.027-38.027l-43.539 65.305c6.392 7.963 13.623 15.207 22.037 21.028l37.557-56.347h21.972 21.973l37.551 56.351c8.416-5.821 15.648-13.063 22.039-21.026z" fill="#575f64"/><path d="m315.524 297.336c8.416-5.821 15.648-13.063 22.039-21.026l-43.536-65.31h-38.027v29.985h21.973z" fill="#474f54"/></g><path d="m336.934 345.376-80.934 135.765-80.971-135.747-56.622 94.224 71.382 72.382h66.211 66.216l71.391-72.382z" fill="#474f54"/><path d="m393.607 439.618-56.673-94.242-80.934 135.765v30.859h66.216z" fill="#32393f"/></g></svg>